<svg width="640" height="640" xmlns="http://www.w3.org/2000/svg" fill="#FFFFFF" clip-rule="evenodd" fill-rule="evenodd" image-rendering="optimizeQuality" text-rendering="geometricPrecision" shape-rendering="geometricPrecision">

 <g>
  <title>Layer 1</title>
  <path id="svg_1" d="m424.87,343.77c32.01,0 61.01,13.01 82.03,34.02c21.09,21 34.1,50.05 34.1,82.1c0,32.06 -13.01,61.11 -34.02,82.11l-1.32,1.22c-20.92,20.29 -49.41,32.8 -80.79,32.8c-32.06,0 -61.1,-13.01 -82.1,-34.02c-21.01,-21 -34.02,-50.05 -34.02,-82.11s13.01,-61.1 34.02,-82.1c21,-21.01 50.04,-34.02 82.1,-34.02zm-81.76,-241.69l0,54.18c0.99,12.93 5.5,23.09 13.42,29.85c8.2,7.01 20.46,10.94 36.69,11.23l37.92,-0.04l-88.03,-95.22zm91.21,120.49l-41.3,-0.04c-22.49,-0.35 -40.21,-6.4 -52.9,-17.24c-13.23,-11.31 -20.68,-27.35 -22.19,-47.23l-0.11,-1.74l0,-67.03l-154.95,0c-10.34,0 -19.75,4.23 -26.55,11.03c-6.8,6.8 -11.03,16.21 -11.03,26.55l0,336.49c0,10.3 4.25,19.71 11.06,26.52c6.8,6.8 16.22,11.05 26.52,11.05l119.41,0c2.54,8.79 5.87,17.25 9.92,25.29l-129.33,0c-17.28,0 -33.02,-7.08 -44.41,-18.46c-11.38,-11.39 -18.46,-27.12 -18.46,-44.4l0,-336.49c0,-17.26 7.08,-32.98 18.45,-44.36c11.44,-11.43 27.16,-18.51 44.42,-18.51l173.88,0c4.11,0 7.76,1.96 10.07,5l109.39,118.34c2.24,2.43 3.34,5.49 3.34,8.55l0.03,119.72c-8.18,-1.97 -16.62,-3.25 -25.26,-3.79l0,-89.25zm-229.76,54.49c-6.98,0 -12.64,-5.66 -12.64,-12.64c0,-6.99 5.66,-12.65 12.64,-12.65l150.49,0c6.98,0 12.65,5.66 12.65,12.65c0,6.98 -5.67,12.64 -12.65,12.64l-150.49,0zm0,72.3c-6.98,0 -12.64,-5.66 -12.64,-12.65c0,-6.98 5.66,-12.64 12.64,-12.64l142.52,0c3.71,0 7.05,1.6 9.37,4.15a149.03,149.03 0 0 0 -30.54,21.14l-121.35,0zm0,72.3c-6.98,0 -12.64,-5.66 -12.64,-12.65c0,-6.98 5.66,-12.64 12.64,-12.64l86.2,0c-3.82,8.05 -6.95,16.51 -9.29,25.29l-76.91,0zm215.15,-22.88a55.2,55.2 0 0 1 21.15,4.22c6.81,2.8 12.94,6.93 18.03,12.03c5.11,5.09 9.23,11.2 12.04,17.97c2.7,6.56 4.21,13.74 4.21,21.24c0,5.46 -0.8,10.79 -2.31,15.83a54.357,54.357 0 0 1 -5.09,11.81l16.7,18.37c1.49,1.63 1.38,4.19 -0.25,5.69l-15.35,14.02a4.045,4.045 0 0 1 -5.68,-0.24l-15.7,-17.51a55.418,55.418 0 0 1 -11.7,5.09l-0.15,0.04a55.542,55.542 0 0 1 -15.9,2.33c-7.44,0 -14.62,-1.52 -21.17,-4.21a56.126,56.126 0 0 1 -18.03,-12.02a55.41,55.41 0 0 1 -12.04,-18a55.369,55.369 0 0 1 -4.21,-21.2c0,-7.45 1.51,-14.62 4.21,-21.18a55.884,55.884 0 0 1 12.03,-18.03c5.1,-5.1 11.2,-9.23 17.98,-12.03a55.264,55.264 0 0 1 21.23,-4.22zm24.48,30.96a35.057,35.057 0 0 0 -11.26,-7.55l-0.19,-0.08a34.564,34.564 0 0 0 -13.03,-2.52c-4.72,0 -9.2,0.94 -13.24,2.59a35.247,35.247 0 0 0 -11.26,7.56a34.544,34.544 0 0 0 -10.15,24.5c0,4.71 0.95,9.2 2.59,13.23c1.79,4.23 4.37,8.07 7.55,11.25c3.22,3.2 7.03,5.81 11.25,7.53c4.07,1.68 8.55,2.62 13.26,2.62c4.71,0 9.19,-0.94 13.23,-2.62c4.22,-1.73 8.06,-4.35 11.25,-7.53c3.18,-3.18 5.8,-7.02 7.53,-11.25c1.68,-4.04 2.63,-8.53 2.63,-13.23c0,-4.72 -0.95,-9.2 -2.63,-13.25l-0.07,-0.2c-1.74,-4.13 -4.3,-7.89 -7.46,-11.05z"/>
 </g>
</svg>