<svg width="160" height="160" xmlns="http://www.w3.org/2000/svg" data-name="Layer 1" fill="#FFFFFF">
 <title>person-profile-image</title>

 <g>
  <title>Layer 1</title>
  <path id="svg_1" d="m81.44242,20.00006a61.46,61.46 0 1 1 -43.44,18a61.21,61.21 0 0 1 43.44,-18zm-12.16,71.35c0.26,-2.18 -6.23,-10.54 -7.41,-14.54c-2.54,-4 -3.44,-10.46 -0.68,-14.73c1.11,-1.69 0.63,-3.16 0.63,-5.51c0,-23.24 40.7,-23.24 40.7,0c0,2.94 -0.67,3.63 0.92,6c2.66,3.86 1.29,10.72 -1,14.3c-1.44,4.13 -8.2,12.13 -7.73,14.5c0.42,11.92 -25.5,11.53 -25.43,0l0,0l0,-0.02zm-31,20.07c3.25,-3.6 9.09,-3.76 16.17,-7.36a74.7,74.7 0 0 0 7.75,-4.53c8.22,10.08 15,21.16 12.78,34.05a52.65,52.65 0 0 0 6.44,0.4c0.55,0 1.09,0 1.64,0c-0.5,-15.14 8.38,-26.21 17.79,-35.63a68.55,68.55 0 0 0 15.48,7.65c4.62,1.54 7.39,2.53 9,4.3a52.54,52.54 0 1 0 -87,1.08l-0.05,0.04z"/>
 </g>
</svg>